<svg id="Group_3322" data-name="Group 3322" xmlns="http://www.w3.org/2000/svg" width="28.771" height="28.771" viewBox="0 0 28.771 28.771">
  <g id="Group_582" data-name="Group 582">
    <ellipse id="Ellipse_6" data-name="Ellipse 6" cx="14.386" cy="14.386" rx="14.386" ry="14.386" fill="#4750ae"/>
  </g>
  <path id="Path_730" data-name="Path 730" d="M6.12,10.492A2.612,2.612,0,0,0,8.734,7.869l.009-5.246a2.623,2.623,0,1,0-5.246,0V7.869A2.619,2.619,0,0,0,6.12,10.492Zm4.634-2.623A4.537,4.537,0,0,1,6.12,12.328,4.537,4.537,0,0,1,1.486,7.869H0a6.106,6.106,0,0,0,5.246,5.875v2.868H6.995V13.744A6.092,6.092,0,0,0,12.24,7.869Z" transform="translate(8.076 6.643)" fill="#fff"/>
  <line id="Line_18" data-name="Line 18" x1="21" y2="20" transform="translate(3.5 3.8)" fill="none" stroke="#fff" stroke-width="1"/>
</svg>
