<svg xmlns="http://www.w3.org/2000/svg" width="17.228" height="17.86" viewBox="0 0 17.228 17.86"><g transform="translate(0 0)"><g transform="translate(0 0)"><g transform="translate(0 0)"><path d="M13.072,9.514a8.794,8.794,0,0,1-2.713-.43.751.751,0,0,0-.776.184L8.376,10.782A11.668,11.668,0,0,1,3.082,5.533l1.5-1.276a.784.784,0,0,0,.184-.784A8.57,8.57,0,0,1,4.334.761.768.768,0,0,0,3.573,0H.914C.5,0,0,.184,0,.761A13.181,13.181,0,0,0,13.072,13.832a.806.806,0,0,0,.761-.907V10.274A.768.768,0,0,0,13.072,9.514Z" transform="translate(0 4.027)" fill="#4750ae"/><path d="M8.315,4.937V.649H7.091V4.937H5.256L7.7,7.379,10.15,4.937ZM2.447,0,0,2.441H1.835V6.73H3.059V2.441H4.895Z" transform="translate(10.051 0) rotate(45)" fill="#4750ae"/></g></g></g></svg>