<svg xmlns="http://www.w3.org/2000/svg" width="18.757" height="13.774" viewBox="0 0 18.757 13.774"><g transform="translate(-2086.782 -1110.194)"><g transform="translate(2086.782 1113.897)"><path d="M2098.474,1133.817a3.063,3.063,0,0,0-3.059-3.06,2.958,2.958,0,0,0-2.72,1.788,3.152,3.152,0,0,0-2.853-1.788,3.056,3.056,0,0,0-2.319,5.053,3.031,3.031,0,0,0,.342.34l4.667,4.635a.146.146,0,0,0,.1.043.147.147,0,0,0,.1-.043l4.84-4.808h0a3.044,3.044,0,0,0,.895-2.159Z" transform="translate(-2086.782 -1130.757)" fill="#fff"/></g><g transform="translate(2097.955 1110.194)"><path d="M2154.753,1112.179a1.987,1.987,0,0,0-1.984-1.984,2.09,2.09,0,0,0-1.87,1.179,1.909,1.909,0,0,0-1.745-1.179,1.984,1.984,0,0,0-1.282,3.5l3.027,3.006a.094.094,0,0,0,.067.028.1.1,0,0,0,.068-.028l3.139-3.119h0a1.972,1.972,0,0,0,.58-1.4Z" transform="translate(-2147.17 -1110.194)" fill="#fff"/></g></g></svg>