<svg xmlns="http://www.w3.org/2000/svg" width="17.151" height="11.197" viewBox="0 0 17.151 11.197">
  <path id="Path_1969" data-name="Path 1969" d="M16.592,5.077H2.559A1.564,1.564,0,0,0,1,6.636v8.079a1.564,1.564,0,0,0,1.559,1.559H16.592a1.564,1.564,0,0,0,1.559-1.559V6.636A1.564,1.564,0,0,0,16.592,5.077Zm-7.8,6.38H6.457V13.8H4.9V11.457H2.559V9.9H4.9V7.559H6.457V9.9H8.8ZM12.3,13.016a1.169,1.169,0,1,1,1.169-1.169A1.168,1.168,0,0,1,12.3,13.016Zm3.118-2.339a1.169,1.169,0,1,1,1.169-1.169A1.168,1.168,0,0,1,15.423,10.678Z" transform="translate(-1 -5.077)" fill="#fff"/>
</svg>
