<svg xmlns="http://www.w3.org/2000/svg" width="8.644" height="8.644" viewBox="0 0 8.644 8.644"><defs><style>.a{fill:#4750ae;}</style></defs><path class="a" d="M5.89,8.915h.864V8.051H5.89ZM6.322,2a4.322,4.322,0,1,0,4.322,4.322A4.324,4.324,0,0,0,6.322,2Zm0,7.78A3.458,3.458,0,1,1,9.78,6.322,3.462,3.462,0,0,1,6.322,9.78Zm0-6.051A1.728,1.728,0,0,0,4.593,5.458h.864a.864.864,0,0,1,1.729,0c0,.864-1.3.756-1.3,2.161h.864c0-.972,1.3-1.08,1.3-2.161A1.728,1.728,0,0,0,6.322,3.729Z" transform="translate(-2 -2)"/></svg>