<svg xmlns="http://www.w3.org/2000/svg" width="76.725" height="12.047" viewBox="0 0 76.725 12.047"><defs><style>.a{fill:#ff3266;}.b{fill:#511673;}</style></defs><g transform="translate(-127.095 -576.968)"><g transform="translate(164.757 576.968)"><path class="a" d="M304.068,593.609l.539.06.631-1.084a3.073,3.073,0,0,1,2.713-1.6,3.03,3.03,0,0,1,2.346.973,4.485,4.485,0,0,1,.558.894,3.851,3.851,0,0,1,.622-.909,3.231,3.231,0,0,1,2.362-.957,3.166,3.166,0,0,1,2.314.861,4.073,4.073,0,0,1,.973,3.191v4.771h-1.181V595.09a3.372,3.372,0,0,0-.638-2.282,2.027,2.027,0,0,0-1.707-.718,2.244,2.244,0,0,0-1.883.894,3.033,3.033,0,0,0-.511,2.058v4.771h-1.181v-4.771a3.273,3.273,0,0,0-.447-2.042,2.214,2.214,0,0,0-1.883-.91,2.113,2.113,0,0,0-1.819.878,3.326,3.326,0,0,0-.574,2.058v4.787h-1.181Z" transform="translate(-304.068 -588.005)"/><path class="a" d="M374.1,595.856a3.27,3.27,0,0,0,3.351,3.175,3.175,3.175,0,0,0,2.952-1.771h1.229a4.551,4.551,0,0,1-1.739,2.09,4.493,4.493,0,0,1-2.441.7,4.434,4.434,0,0,1-4.532-4.516,4.51,4.51,0,1,1,9,.319Zm6.654-.941a3.346,3.346,0,0,0-6.638,0Z" transform="translate(-358.263 -588.005)"/><path class="a" d="M421.178,595.856a3.27,3.27,0,0,0,3.351,3.175,3.175,3.175,0,0,0,2.952-1.771h1.229a4.551,4.551,0,0,1-1.739,2.09,4.493,4.493,0,0,1-2.441.7A4.434,4.434,0,0,1,420,595.536a4.51,4.51,0,1,1,9,.319Zm6.654-.941a3.346,3.346,0,0,0-6.638,0Z" transform="translate(-395.326 -588.005)"/><path class="a" d="M467.046,581.133h-1.691v-.941h1.691v-3.223h1.165v3.223h1.883v.941h-1.883v7.643h-1.165Z" transform="translate(-431.031 -576.968)"/></g><path class="b" d="M127.1,576.968h3.016v11.807H127.1Z"/><path class="b" d="M150.786,589.717h2.473v.941a2.63,2.63,0,0,1,2.441-1.245c2.984,0,3.287,2.425,3.287,3.622v5.537h-2.649v-4.835c0-.973-.208-1.835-1.388-1.835-1.308,0-1.516.941-1.516,1.851v4.819h-2.649Z" transform="translate(-18.649 -9.797)"/><path class="b" d="M195.8,581.93h-1.308v-2.01H195.8v-2.952h2.649v2.952h1.277v2.01h-1.277v6.845H195.8Z" transform="translate(-53.056)"/><path class="b" d="M224.484,576.968h2.648v2.01h-2.648Zm0,2.952h2.648v8.856h-2.648Z" transform="translate(-76.663)"/><path class="b" d="M245.924,589.717H248.4v.941a2.082,2.082,0,0,1,.543-.622,2.94,2.94,0,0,1,1.931-.622,2.7,2.7,0,0,1,2.026.846,2.988,2.988,0,0,1,.527.734,3.629,3.629,0,0,1,.638-.766,3.142,3.142,0,0,1,2.17-.814,3.208,3.208,0,0,1,2.33.894c.83.878.957,1.468.957,3.431v4.835H256.87v-4.707a3.136,3.136,0,0,0-.176-1.244,1.118,1.118,0,0,0-1.181-.718,1.255,1.255,0,0,0-1.277.734,2.535,2.535,0,0,0-.191,1.1v4.835H251.4v-4.819a3.039,3.039,0,0,0-.159-1.1,1.144,1.144,0,0,0-1.165-.75,1.287,1.287,0,0,0-1.308.782,2.907,2.907,0,0,0-.192,1.181v4.707h-2.649Z" transform="translate(-93.541 -9.797)"/></g></svg>