<svg xmlns="http://www.w3.org/2000/svg" width="28.771" height="28.771" viewBox="0 0 28.771 28.771"><path d="M14.386,0A14.386,14.386,0,1,1,0,14.386,14.386,14.386,0,0,1,14.386,0Z" transform="translate(0)" fill="#f36"/><path d="M12.434,9.049a8.364,8.364,0,0,1-2.58-.409.714.714,0,0,0-.738.175l-1.148,1.44A11.1,11.1,0,0,1,2.931,5.263L4.356,4.049A.746.746,0,0,0,4.532,3.3,8.152,8.152,0,0,1,4.123.724.73.73,0,0,0,3.4,0H.87C.475,0,0,.175,0,.724A12.537,12.537,0,0,0,12.434,13.157a.767.767,0,0,0,.724-.863V9.773A.73.73,0,0,0,12.434,9.049Z" transform="translate(23.229 14.869) rotate(135)" fill="#fff"/></svg>