<svg xmlns="http://www.w3.org/2000/svg" width="21.352" height="18.458" viewBox="0 0 21.352 18.458"><path d="M1492.94,1398.706a6.091,6.091,0,0,0-3.736-3.677c-2.907-.814-5.785.11-6.867,2.491-.915-2.016-2.817-2.826-5.2-2.707a5.588,5.588,0,0,0-3.325,9.841l8.522,8.465a.267.267,0,0,0,.19.079.27.27,0,0,0,.191-.079l8.838-8.781h0a5.6,5.6,0,0,0,1.3-2.048A5.693,5.693,0,0,0,1492.94,1398.706Zm-16.334,5.266a.591.591,0,1,1,.591-.591A.591.591,0,0,1,1476.605,1403.972Zm2.954,2.363a.591.591,0,0,1-1.182,0V1402.2a.591.591,0,1,1,1.182,0Zm2.363-1.772a.591.591,0,1,1-1.181,0v-3.545a.591.591,0,1,1,1.181,0Zm2.363,2.363a.591.591,0,1,1-1.182,0v-7.089a.591.591,0,1,1,1.182,0Zm2.363-3.545a.591.591,0,1,1-1.181,0v-2.363a.591.591,0,0,1,1.181,0Zm1.773.591a.591.591,0,1,1,.59-.591A.591.591,0,0,1,1488.421,1403.972Z" transform="translate(-1471.837 -1394.739)" fill="#4750ae"/></svg>