<svg xmlns="http://www.w3.org/2000/svg" xmlns:xlink="http://www.w3.org/1999/xlink" width="49.506" height="49.506" viewBox="0 0 49.506 49.506"><defs><filter id="a" x="0" y="0" width="49.506" height="49.506" filterUnits="userSpaceOnUse"><feOffset dx="2" dy="3" input="SourceAlpha"/><feGaussianBlur stdDeviation="1.5" result="b"/><feFlood flood-opacity="0.302"/><feComposite operator="in" in2="b"/><feComposite in="SourceGraphic"/></filter></defs><g transform="translate(2.5 1.5)"><g transform="matrix(1, 0, 0, 1, -2.5, -1.5)" filter="url(#a)"><circle cx="20.253" cy="20.253" r="20.253" transform="translate(2.5 1.5)" fill="#ff3266"/></g><g transform="translate(8.287 8.954)"><g transform="translate(0 4.957)"><path d="M1126.423,1160.317a.159.159,0,0,1,.035-.052l.736-.736a.7.7,0,1,1,.575.574l-.736.736a.16.16,0,0,1-.055.036,12.489,12.489,0,0,0,1.971,1.546c.1.063.207.119.314.174l2.418-2.418a.26.26,0,0,0,0-.368l-.315-.315.779-.779a2.519,2.519,0,0,0-3.562-3.562l-.779.779-.315-.315a.26.26,0,0,0-.368,0l-2.437,2.436a9,9,0,0,0,.9,1.3Q1125.986,1159.854,1126.423,1160.317Zm3.01-4.314a1.316,1.316,0,1,1,1.861,1.861l-.779.779-1.862-1.861Z" transform="translate(-1116.881 -1151.611)" fill="#d3354c"/><path d="M1112.88,1157.805q-1.23-1.236-2.468-2.463a1.453,1.453,0,0,0-2.2,0c-.513.509-1.026,1.018-1.531,1.536a.3.3,0,0,1-.423.078c-.212-.116-.432-.218-.647-.328-.122-.062-.243-.126-.358-.2a14.262,14.262,0,0,1-2.247-1.763h0q-.324-.31-.633-.637-.5-.528-.959-1.094a10.273,10.273,0,0,1-1.025-1.487,7.347,7.347,0,0,1-.352-.717.316.316,0,0,1,.078-.406c.514-.5,1.014-1.005,1.519-1.514a1.458,1.458,0,0,0,0-2.248c-.4-.406-.8-.8-1.2-1.208s-.824-.833-1.242-1.243a1.462,1.462,0,0,0-2.2,0c-.518.509-1.014,1.031-1.54,1.531a2.5,2.5,0,0,0-.785,1.687,7.148,7.148,0,0,0,.552,3.076,18.691,18.691,0,0,0,3.317,5.526,20.532,20.532,0,0,0,6.8,5.319,9.834,9.834,0,0,0,3.766,1.1,2.759,2.759,0,0,0,2.368-.9c.44-.492.936-.94,1.4-1.411A1.468,1.468,0,0,0,1112.88,1157.805Z" transform="translate(-1094.651 -1143.618)" fill="#d3354c"/></g><g transform="translate(13.462)"><path d="M1151.15,1146.611l1.592-.272a7.146,7.146,0,0,0-6.044-5.863l-.224,1.6a5.523,5.523,0,0,1,4.676,4.534Z" transform="translate(-1146.474 -1136.336)" fill="#d3354c"/><path d="M1154.242,1127.891a11.738,11.738,0,0,0-6.73-3.356l-.224,1.6a10.243,10.243,0,0,1,8.667,8.4l1.592-.272A11.82,11.82,0,0,0,1154.242,1127.891Z" transform="translate(-1147.077 -1124.535)" fill="#d3354c"/></g></g><g transform="translate(8.287 7.671)"><g transform="translate(0 4.957)"><path d="M1126.423,1155.376a.157.157,0,0,1,.035-.052l.736-.736a.7.7,0,1,1,.575.574l-.736.736a.159.159,0,0,1-.055.036,12.518,12.518,0,0,0,1.971,1.546c.1.063.207.119.314.174l2.418-2.418a.26.26,0,0,0,0-.369l-.315-.315.779-.779a2.519,2.519,0,0,0-3.562-3.562l-.779.779-.315-.315a.26.26,0,0,0-.368,0l-2.437,2.436a9,9,0,0,0,.9,1.3Q1125.986,1154.913,1126.423,1155.376Zm3.01-4.314a1.316,1.316,0,0,1,1.861,1.861l-.779.779-1.862-1.861Z" transform="translate(-1116.881 -1146.67)" fill="#fff"/><path d="M1112.88,1152.864q-1.23-1.236-2.468-2.463a1.453,1.453,0,0,0-2.2,0c-.513.509-1.026,1.018-1.531,1.536a.3.3,0,0,1-.423.078c-.212-.115-.432-.218-.647-.328-.122-.062-.243-.127-.358-.2a14.27,14.27,0,0,1-2.247-1.763h0q-.324-.309-.633-.636-.5-.528-.959-1.095a10.254,10.254,0,0,1-1.025-1.487,7.359,7.359,0,0,1-.352-.717.316.316,0,0,1,.078-.406c.514-.5,1.014-1.005,1.519-1.514a1.458,1.458,0,0,0,0-2.248c-.4-.406-.8-.8-1.2-1.208s-.824-.833-1.242-1.242a1.462,1.462,0,0,0-2.2,0c-.518.509-1.014,1.031-1.54,1.532a2.5,2.5,0,0,0-.785,1.687,7.148,7.148,0,0,0,.552,3.076,18.7,18.7,0,0,0,3.317,5.526,20.533,20.533,0,0,0,6.8,5.319,9.834,9.834,0,0,0,3.766,1.1,2.759,2.759,0,0,0,2.368-.9c.44-.492.936-.94,1.4-1.411A1.468,1.468,0,0,0,1112.88,1152.864Z" transform="translate(-1094.651 -1138.677)" fill="#fff"/></g><g transform="translate(13.462)"><path d="M1151.15,1141.67l1.592-.272a7.146,7.146,0,0,0-6.044-5.863l-.224,1.6a5.522,5.522,0,0,1,4.676,4.534Z" transform="translate(-1146.474 -1131.395)" fill="#fff"/><path d="M1154.242,1122.95a11.738,11.738,0,0,0-6.73-3.356l-.224,1.6a10.242,10.242,0,0,1,8.667,8.4l1.592-.272A11.82,11.82,0,0,0,1154.242,1122.95Z" transform="translate(-1147.077 -1119.594)" fill="#fff"/></g></g></g></svg>