<svg xmlns="http://www.w3.org/2000/svg" width="28.771" height="28.771" viewBox="0 0 28.771 28.771">
  <g id="Group_3323" data-name="Group 3323" transform="translate(0.063 8.346)">
    <ellipse id="Ellipse_95" data-name="Ellipse 95" cx="14.386" cy="14.386" rx="14.386" ry="14.386" transform="translate(-0.063 -8.346)" fill="#4750ae"/>
    <g id="Group_582" data-name="Group 582" transform="translate(8)">
      <path id="Path_687" data-name="Path 687" d="M11.746,8.549a7.9,7.9,0,0,1-2.438-.387.675.675,0,0,0-.7.166L7.527,9.689A10.485,10.485,0,0,1,2.769,4.972L4.116,3.826a.7.7,0,0,0,.166-.7A7.7,7.7,0,0,1,3.895.684.69.69,0,0,0,3.211,0H.822C.449,0,0,.166,0,.684A11.844,11.844,0,0,0,11.746,12.43a.725.725,0,0,0,.684-.815V9.233A.69.69,0,0,0,11.746,8.549Z" transform="translate(0 0)" fill="#fff"/>
    </g>
  </g>
</svg>
