<svg xmlns="http://www.w3.org/2000/svg" width="18.429" height="16.156" viewBox="0 0 18.429 16.156"><path d="M1407.909,1681.06a4.872,4.872,0,0,0-4.822-4.908,4.708,4.708,0,0,0-4.315,2.877,4.929,4.929,0,0,0-4.47-2.877,4.871,4.871,0,0,0-4.823,4.908,4.939,4.939,0,0,0,1.168,3.2,4.849,4.849,0,0,0,.539.545l7.355,7.436a.228.228,0,0,0,.164.069.231.231,0,0,0,.165-.069l7.628-7.714h0a4.931,4.931,0,0,0,1.41-3.464Zm-14,3.656a.487.487,0,1,1,.478-.486A.482.482,0,0,1,1393.913,1684.716Zm2.391,1.947a.478.478,0,1,1-.956,0v-3.406a.478.478,0,1,1,.956,0Zm1.912-1.46a.478.478,0,1,1-.956,0v-2.92a.478.478,0,1,1,.956,0Zm1.912,1.947a.478.478,0,1,1-.956,0v-5.839a.478.478,0,1,1,.956,0Zm1.912-2.92a.478.478,0,1,1-.956,0v-1.947a.478.478,0,1,1,.956,0Zm1.434.486a.487.487,0,1,1,.478-.486A.482.482,0,0,1,1403.475,1684.716Z" transform="translate(-1389.48 -1676.151)" fill="#ff3266"/></svg>