<svg xmlns="http://www.w3.org/2000/svg" width="16.72" height="18.578" viewBox="0 0 16.72 18.578"><g transform="translate(-1600.472 -1807.672)"><path d="M1907.808,1346.491h-3.883a2.775,2.775,0,0,0-5.239,0H1894.8a1.863,1.863,0,0,0-1.858,1.858v13a1.863,1.863,0,0,0,1.858,1.858h13a1.863,1.863,0,0,0,1.858-1.858v-13A1.863,1.863,0,0,0,1907.808,1346.491Zm-6.5,0a.929.929,0,1,1-.929.929A.932.932,0,0,1,1901.305,1346.491Zm0,3.715a2.787,2.787,0,1,1-2.787,2.787A2.783,2.783,0,0,1,1901.305,1350.206Zm5.573,11.147h-11.147v-1.3c0-1.858,3.716-2.88,5.574-2.88s5.573,1.021,5.573,2.88Z" transform="translate(-292.473 463.038)" fill="#4750ae"/></g></svg>