<svg xmlns="http://www.w3.org/2000/svg" width="18.443" height="18.971" viewBox="0 0 18.443 18.971"><path d="M16.279,10.41a7.738,7.738,0,0,0,.059-.925,5.848,5.848,0,0,0-.071-.925l2-1.565a.49.49,0,0,0,.119-.6l-1.9-3.284a.482.482,0,0,0-.581-.213l-2.36.949a6.947,6.947,0,0,0-1.6-.925L11.6.4a.473.473,0,0,0-.474-.4H7.327a.461.461,0,0,0-.462.4L6.509,2.917a7.132,7.132,0,0,0-1.6.925l-2.36-.949a.469.469,0,0,0-.581.213L.071,6.391A.46.46,0,0,0,.189,7l2,1.565a5.588,5.588,0,0,0-.012,1.85l-2,1.565a.49.49,0,0,0-.119.6l1.9,3.284a.482.482,0,0,0,.581.213l2.36-.949a6.947,6.947,0,0,0,1.6.925l.356,2.514a.482.482,0,0,0,.474.4h3.794a.453.453,0,0,0,.462-.4l.356-2.514a7.132,7.132,0,0,0,1.6-.925l2.36.949a.469.469,0,0,0,.581-.213l1.9-3.284a.46.46,0,0,0-.119-.6ZM9.224,13.042a3.557,3.557,0,1,1,3.557-3.557A3.568,3.568,0,0,1,9.224,13.042Z" transform="translate(-0.002)" fill="#4750ae"/></svg>