<svg xmlns="http://www.w3.org/2000/svg" width="27.041" height="18.49" viewBox="0 0 27.041 18.49"><g transform="translate(6131.386 -18.005)"><path d="M6.014,9.18H0v-3H.005L0,6.173l2-2-.093-.092.629-.625.467.467,2-2V1l1-1V2.164H6.009l.005.005-2,2,2,2-.005,0h.005v3ZM1.625,6.931h0a4.723,4.723,0,0,1,.582.038,14.193,14.193,0,0,0,1.639.145,2.471,2.471,0,0,0,1.166-.232V6.423l-2-2-2,2V6.99A3.087,3.087,0,0,1,1.625,6.931Z" transform="translate(-6112.703 27.315)" fill="#ff3266"/><path d="M2.271,212.389h0a.559.559,0,0,0-.559-.559H.559a.559.559,0,0,0-.559.559H0a.559.559,0,0,0,.559.559H1.713A.559.559,0,0,0,2.271,212.389Z" transform="translate(-6131.386 -186.187)" fill="#ff3266"/><path d="M56.848,290.389h0a.559.559,0,0,0-.559-.559H54.559a.559.559,0,0,0-.559.559h0a.559.559,0,0,0,.559.559h1.731A.559.559,0,0,0,56.848,290.389Z" transform="translate(-6183.439 -261.375)" fill="#ff3266"/><path d="M88.506,355.83H86.559a.559.559,0,0,0-.559.559h0a.559.559,0,0,0,.559.559h1.947a.559.559,0,0,0,.559-.559h0A.559.559,0,0,0,88.506,355.83Z" transform="translate(-6214.285 -324.996)" fill="#ff3266"/><path d="M15.12,18.448a.267.267,0,0,1-.19-.079L13.491,16.94H8.418a.559.559,0,0,1,0-1.118h3.947l-.036-.036h3.787v-.865H11.458l-.98-.974H7.553a.559.559,0,1,1,0-1.118h6.219v-.757H8.591L8.119,11.6H5.174a.559.559,0,1,1,0-1.118h1.82l-.612-.608a5.594,5.594,0,0,1-.626-.622,5.76,5.76,0,0,1-.385-.5H2.794a.559.559,0,0,1,0-1.118H9.157V6.7H4.506A5.609,5.609,0,0,1,4.4,5.6c0-.062,0-.126,0-.2H2.145a.559.559,0,1,1,0-1.118H4.556l0-.009.006-.027H7.319V3.6H4.77a5.6,5.6,0,0,1,.318-.685H.559a.559.559,0,1,1,0-1.118H5.9a5.6,5.6,0,0,1,9.211,1.5A5.629,5.629,0,0,1,17.139.92a5.6,5.6,0,0,1,8.345,6.586A5.654,5.654,0,0,1,24.176,9.56l-.705.7v-1.8H17.457v3.007h.005l-.005,0,2,2-2,2,.005.005h-.005v.75l-2.145,2.131A.271.271,0,0,1,15.12,18.448Zm5.344-5.22h0l-2-2V9.469h4.009v1.754l-2,2Z" transform="translate(-6130.16 18.005)" fill="#ff3266"/></g></svg>