<svg xmlns="http://www.w3.org/2000/svg" width="24.028" height="16.429" viewBox="0 0 24.028 16.429"><g transform="translate(6131.386 -18.005)"><path d="M5.344,8.157H0V5.489H0l0,0L1.781,3.7,1.7,3.622l.559-.555.415.415L4.453,1.7V.885L5.344,0V1.923h0l0,0L3.563,3.7,5.344,5.485l0,0h0V8.156Zm-3.9-2h0a4.2,4.2,0,0,1,.517.034,12.611,12.611,0,0,0,1.456.128,2.2,2.2,0,0,0,1.036-.206V5.708L2.672,3.927.891,5.708v.5A2.743,2.743,0,0,1,1.444,6.159Z" transform="translate(-6114.785 26.278)" fill="#4750ae"/><path d="M2.018,212.327h0a.5.5,0,0,0-.5-.5H.5a.5.5,0,0,0-.5.5H0a.5.5,0,0,0,.5.5H1.522A.5.5,0,0,0,2.018,212.327Z" transform="translate(-6131.386 -187.038)" fill="#4750ae"/><path d="M56.531,290.327h0a.5.5,0,0,0-.5-.5H54.5a.5.5,0,0,0-.5.5h0a.5.5,0,0,0,.5.5h1.538A.5.5,0,0,0,56.531,290.327Z" transform="translate(-6183.656 -262.539)" fill="#4750ae"/><path d="M88.227,355.83H86.5a.5.5,0,0,0-.5.5h0a.5.5,0,0,0,.5.5h1.73a.5.5,0,0,0,.5-.5h0A.5.5,0,0,0,88.227,355.83Z" transform="translate(-6214.631 -326.425)" fill="#4750ae"/><path d="M13.435,16.392a.238.238,0,0,1-.169-.07l-1.279-1.27H7.48a.5.5,0,0,1,0-.993h3.507l-.032-.032H14.32v-.769H10.181l-.871-.865h-2.6a.5.5,0,1,1,0-.993h5.526v-.673h-4.6l-.419-.417H4.6a.5.5,0,1,1,0-.993H6.214l-.544-.54a4.971,4.971,0,0,1-.556-.553,5.118,5.118,0,0,1-.342-.445H2.482a.5.5,0,0,1,0-.993H8.137V5.954H4a4.984,4.984,0,0,1-.1-.973c0-.055,0-.112,0-.18H1.906a.5.5,0,1,1,0-.993H4.049l0-.008.005-.024H6.5V3.2H4.238a4.98,4.98,0,0,1,.283-.609H.5A.5.5,0,1,1,.5,1.6H5.238a4.974,4.974,0,0,1,8.184,1.331A5,5,0,0,1,15.229.817a4.98,4.98,0,0,1,7.415,5.852,5.024,5.024,0,0,1-1.162,1.826l-.627.624v-1.6H15.512V10.2h0l0,0,1.781,1.777-1.781,1.781,0,0h0v.666l-1.906,1.894A.241.241,0,0,1,13.435,16.392Zm4.749-4.639h0L16.4,9.972V8.414h3.563V9.972l-1.781,1.781Z" transform="translate(-6130.296 18.005)" fill="#4750ae"/></g></svg>