<svg xmlns="http://www.w3.org/2000/svg" width="210.02" height="31.773" viewBox="0 0 210.02 31.773"><g transform="translate(6.219 11.071)"><rect width="0.722" height="0.722" transform="translate(0)" fill="gray"/><path d="M23.982,85.782H23.26V84.143h.722Zm0-3.275H23.26V80.87h.722Z" transform="translate(-23.26 -78.509)" fill="gray"/><rect width="0.722" height="0.722" transform="translate(0 8.909)" fill="gray"/></g><g transform="translate(8.959 14.135)"><rect width="0.722" height="0.722" transform="translate(0 2.781)" fill="gray"/><rect width="0.722" height="0.722" fill="gray"/></g><g transform="translate(11.7 14.573)"><rect width="0.722" height="0.722" transform="translate(0 1.904)" fill="gray"/><rect width="0.722" height="0.722" fill="gray"/></g><g transform="translate(51.536 14.573)"><rect width="0.722" height="0.722" transform="translate(0 1.904)" fill="gray"/><rect width="0.722" height="0.722" fill="gray"/></g><g transform="translate(14.44 15.012)"><rect width="0.722" height="0.722" transform="translate(0 1.027)" fill="gray"/><rect width="0.722" height="0.722" fill="gray"/></g><g transform="translate(17.181 10.897)"><rect width="0.722" height="0.722" transform="translate(0 9.256)" fill="gray"/><path d="M64.982,85.6H64.26V83.894h.722Zm0-3.414H64.26V80.48h.722Z" transform="translate(-64.26 -78.05)" fill="gray"/><rect width="0.722" height="0.722" fill="gray"/></g><g transform="translate(19.922 1.382)"><rect width="0.722" height="0.722" transform="translate(0 28.287)" fill="gray"/><path d="M75.232,85.158H74.51V82.913h.722Zm0-4.49H74.51V78.423h.722Zm0-4.486H74.51V73.937h.722Zm0-4.49H74.51V69.446h.722Zm0-4.486H74.51V64.96h.722Zm0-4.49H74.51V60.47h.722Z" transform="translate(-74.51 -58.31)" fill="gray"/><rect width="0.722" height="0.722" fill="gray"/></g><g transform="translate(22.662 2.19)"><rect width="0.722" height="0.722" transform="translate(0 26.671)" fill="gray"/><path d="M85.482,39.382H84.76v-.853h.722Zm0-1.706H84.76v-.853h.722Zm0-1.706H84.76v-.853h.722Zm0-1.706H84.76v-.853h.722Zm0-1.706H84.76V31.7h.722Zm0-1.706H84.76V30h.722Zm0-1.706H84.76v-.853h.722Zm0-1.706H84.76v-.853h.722Zm0-1.706H84.76V24.88h.722Zm0-1.7H84.76v-.853h.722Zm0-1.706H84.76v-.853h.722Zm0-1.706H84.76v-.853h.722Zm0-1.706H84.76v-.853h.722Zm0-1.706H84.76V16.35h.722Z" transform="translate(-84.76 -14.168)" fill="gray"/><rect width="0.722" height="0.722" fill="gray"/></g><g transform="translate(25.403 3.133)"><rect width="0.722" height="0.722" transform="translate(0 24.784)" fill="gray"/><path d="M95.732,88.115H95.01V85.751h.722Zm0-4.734H95.01V81.017h.722Zm0-4.734H95.01V76.283h.722Zm0-4.734H95.01V71.549h.722Zm0-4.729H95.01V66.82h.722Z" transform="translate(-95.01 -64.713)" fill="gray"/><rect width="0.722" height="0.722" fill="gray"/></g><g transform="translate(28.143 11.509)"><rect width="0.722" height="0.722" transform="translate(0 8.032)" fill="gray"/><path d="M105.982,86.237h-.722V84.775h.722Zm0-2.925h-.722V81.85h.722Z" transform="translate(-105.26 -79.666)" fill="gray"/><rect width="0.722" height="0.722" fill="gray"/></g><g transform="translate(43.927 3.133)"><rect width="0.722" height="0.722" transform="translate(0 24.784)" fill="gray"/><path d="M116.232,88.115h-.722V85.751h.722Zm0-4.734h-.722V81.017h.722Zm0-4.734h-.722V76.283h.722Zm0-4.734h-.722V71.549h.722Zm0-4.729h-.722V66.82h.722Z" transform="translate(-115.51 -64.713)" fill="gray"/><rect width="0.722" height="0.722" fill="gray"/></g><g transform="translate(47.825 13.261)"><rect width="0.722" height="0.722" transform="translate(0 4.529)" fill="gray"/><rect width="0.722" height="1.27" transform="translate(0 1.992)" fill="gray"/><rect width="0.722" height="0.722" fill="gray"/></g><g transform="translate(55.621 13.261)"><rect width="0.722" height="0.722" transform="translate(0 4.529)" fill="gray"/><rect width="0.722" height="1.27" transform="translate(0 1.992)" fill="gray"/><rect width="0.722" height="0.722" fill="gray"/></g><g transform="translate(59.519 8.007)"><rect width="0.722" height="0.722" transform="translate(0 15.037)" fill="gray"/><path d="M157.242,80.363h-.722V78.772h.722Zm0-3.179h-.722V75.593h.722Zm0-3.182h-.722V72.412h.722Zm0-3.182h-.722V69.23h.722Z" transform="translate(-156.517 -66.917)" fill="gray"/><rect width="0.722" height="0.722" fill="gray"/></g><g transform="translate(86.991 14.573)"><rect width="0.722" height="0.722" transform="translate(0 1.904)" fill="gray"/><rect width="0.722" height="0.722" fill="gray"/></g><g transform="translate(91.075 13.261)"><rect width="0.722" height="0.722" transform="translate(0 4.529)" fill="gray"/><rect width="0.722" height="1.27" transform="translate(0 1.992)" fill="gray"/><rect width="0.722" height="0.722" fill="gray"/></g><rect width="0.722" height="0.877" transform="translate(94.973 15.448)" fill="gray"/><g transform="translate(63.417 1.216)"><rect width="0.722" height="0.722" transform="translate(0 28.619)" fill="gray"/><path d="M167.492,69.136h-.722v-1.47h.722Zm0-2.943h-.722v-1.47h.722Zm0-2.94h-.722v-1.47h.722Zm0-2.943h-.722V58.84h.722Zm0-2.943h-.722V55.9h.722Zm0-2.94h-.722v-1.47h.722Zm0-2.943h-.722v-1.47h.722Zm0-2.94h-.722v-1.47h.722Zm0-2.943h-.722V44.13h.722Z" transform="translate(-166.767 -41.962)" fill="gray"/><rect width="0.722" height="0.722" fill="gray"/></g><g transform="translate(67.315 10.197)"><rect width="0.722" height="0.722" transform="translate(0 10.657)" fill="gray"/><path d="M177.742,83.879h-.722v-1.42h.722Zm0-2.839h-.722v-1.42h.722Zm0-2.839h-.722V76.78h.722Z" transform="translate(-177.017 -74.638)" fill="gray"/><rect width="0.722" height="0.722" fill="gray"/></g><g transform="translate(71.213 13.261)"><rect width="0.722" height="0.722" transform="translate(0 4.529)" fill="gray"/><rect width="0.722" height="1.27" transform="translate(0 1.992)" fill="gray"/><rect width="0.722" height="0.722" fill="gray"/></g><g transform="translate(75.11 14.573)"><rect width="0.722" height="0.722" transform="translate(0 1.904)" fill="gray"/><rect width="0.722" height="0.722" fill="gray"/></g><g transform="translate(99.034 13.261)"><rect width="0.722" height="0.722" transform="translate(0 4.529)" fill="gray"/><rect width="0.722" height="1.27" transform="translate(0 1.992)" fill="gray"/><rect width="0.722" height="0.722" fill="gray"/></g><g transform="translate(102.933 8.007)"><rect width="0.722" height="0.722" transform="translate(0 15.037)" fill="gray"/><path d="M271.4,80.363h-.722V78.772h.722Zm0-3.179h-.722V75.593h.722Zm0-3.182h-.722V72.412h.722Zm0-3.182h-.722V69.23h.722Z" transform="translate(-270.677 -66.917)" fill="gray"/><rect width="0.722" height="0.722" fill="gray"/></g><g transform="translate(106.83 12.822)"><rect width="0.722" height="0.722" transform="translate(0 5.406)" fill="gray"/><rect width="0.722" height="1.561" transform="translate(0 2.283)" fill="gray"/><rect width="0.722" height="0.722" fill="gray"/></g><g transform="translate(110.729 10.197)"><rect width="0.722" height="0.722" transform="translate(0 10.657)" fill="gray"/><path d="M291.9,83.879h-.722v-1.42h.722Zm0-2.839h-.722v-1.42h.722Zm0-2.839h-.722V76.78h.722Z" transform="translate(-291.177 -74.638)" fill="gray"/><rect width="0.722" height="0.722" fill="gray"/></g><g transform="translate(114.626 13.261)"><rect width="0.722" height="0.722" transform="translate(0 4.529)" fill="gray"/><rect width="0.722" height="1.27" transform="translate(0 1.992)" fill="gray"/><rect width="0.722" height="0.722" fill="gray"/></g><g transform="translate(118.524 14.573)"><rect width="0.722" height="0.722" transform="translate(0 1.904)" fill="gray"/><rect width="0.722" height="0.722" fill="gray"/></g><g transform="translate(79.008 8.007)"><rect width="0.722" height="0.722" transform="translate(0 15.037)" fill="gray"/><path d="M208.482,80.363h-.722V78.772h.722Zm0-3.179h-.722V75.593h.722Zm0-3.182h-.722V72.412h.722Zm0-3.182h-.722V69.23h.722Z" transform="translate(-207.76 -66.917)" fill="gray"/><rect width="0.722" height="0.722" fill="gray"/></g><g transform="translate(82.906 12.384)"><rect width="0.722" height="0.722" transform="translate(0 6.283)" fill="gray"/><rect width="0.722" height="1.853" transform="translate(0 2.577)" fill="gray"/><rect width="0.722" height="0.722" fill="gray"/></g><g transform="translate(123.171 11.071)"><rect width="0.722" height="0.722" transform="translate(0)" fill="gray"/><path d="M324.612,85.782h-.722V84.143h.722Zm0-3.275h-.722V80.87h.722Z" transform="translate(-323.89 -78.509)" fill="gray"/><rect width="0.722" height="0.722" transform="translate(0 8.909)" fill="gray"/></g><g transform="translate(127.069 14.135)"><rect width="0.722" height="0.722" transform="translate(0 2.781)" fill="gray"/><rect width="0.722" height="0.722" fill="gray"/></g><g transform="translate(130.967 14.573)"><rect width="0.722" height="0.722" transform="translate(0 1.904)" fill="gray"/><rect width="0.722" height="0.722" fill="gray"/></g><g transform="translate(165.862 11.509)"><rect width="0.722" height="0.722" transform="translate(0 8.032)" fill="gray"/><path d="M436.872,86.237h-.722V84.775h.722Zm0-2.925h-.722V81.85h.722Z" transform="translate(-436.15 -79.666)" fill="gray"/><rect width="0.722" height="0.722" fill="gray"/></g><g transform="translate(134.865 15.012)"><rect width="0.722" height="0.722" transform="translate(0 1.027)" fill="gray"/><rect width="0.722" height="0.722" fill="gray"/></g><g transform="translate(138.763 10.897)"><rect width="0.722" height="0.722" transform="translate(0 9.256)" fill="gray"/><path d="M365.612,85.6h-.722V83.894h.722Zm0-3.414h-.722V80.48h.722Z" transform="translate(-364.89 -78.05)" fill="gray"/><rect width="0.722" height="0.722" transform="translate(0)" fill="gray"/></g><g transform="translate(142.661 1.382)"><rect width="0.722" height="0.722" transform="translate(0 28.287)" fill="gray"/><path d="M375.862,85.158h-.722V82.913h.722Zm0-4.49h-.722V78.423h.722Zm0-4.486h-.722V73.937h.722Zm0-4.49h-.722V69.446h.722Zm0-4.486h-.722V64.96h.722Zm0-4.49h-.722V60.47h.722Z" transform="translate(-375.14 -58.31)" fill="gray"/><rect width="0.722" height="0.722" transform="translate(0)" fill="gray"/></g><g transform="translate(146.559 10.197)"><rect width="0.722" height="0.722" transform="translate(0 10.657)" fill="gray"/><path d="M386.112,83.879h-.722v-1.42h.722Zm0-2.839h-.722v-1.42h.722Zm0-2.839h-.722V76.78h.722Z" transform="translate(-385.39 -74.638)" fill="gray"/><rect width="0.722" height="0.722" transform="translate(0)" fill="gray"/></g><g transform="translate(150.457 3.133)"><rect width="0.722" height="0.722" transform="translate(0 24.784)" fill="gray"/><path d="M396.362,88.115h-.722V85.751h.722Zm0-4.734h-.722V81.017h.722Zm0-4.734h-.722V76.283h.722Zm0-4.734h-.722V71.549h.722Zm0-4.729h-.722V66.82h.722Z" transform="translate(-395.64 -64.713)" fill="gray"/><rect width="0.722" height="0.722" transform="translate(0)" fill="gray"/></g><g transform="translate(154.355 1.216)"><rect width="0.722" height="0.722" transform="translate(0 28.619)" fill="gray"/><path d="M406.612,69.136h-.722v-1.47h.722Zm0-2.943h-.722v-1.47h.722Zm0-2.94h-.722v-1.47h.722Zm0-2.943h-.722V58.84h.722Zm0-2.943h-.722V55.9h.722Zm0-2.94h-.722v-1.47h.722Zm0-2.943h-.722v-1.47h.722Zm0-2.94h-.722v-1.47h.722Zm0-2.943h-.722V44.13h.722Z" transform="translate(-405.89 -41.962)" fill="gray"/><rect width="0.722" height="0.722" transform="translate(0)" fill="gray"/></g><g transform="translate(158.253 2.967)"><rect width="0.722" height="0.722" transform="translate(0 25.116)" fill="gray"/><path d="M416.862,72.116h-.722V70.677h.722Zm0-2.875h-.722V67.8h.722Zm0-2.878h-.722V64.924h.722Zm0-2.878h-.722V62.046h.722Zm0-2.875h-.722V59.171h.722Zm0-2.878h-.722V56.293h.722Zm0-2.878h-.722V53.415h.722Zm0-2.875h-.722V50.54h.722Z" transform="translate(-416.14 -48.409)" fill="gray"/><rect width="0.722" height="0.722" transform="translate(0 0)" fill="gray"/></g><g transform="translate(162.151 1.382)"><rect width="0.722" height="0.722" transform="translate(0 28.287)" fill="gray"/><path d="M427.112,85.158h-.722V82.913h.722Zm0-4.49h-.722V78.423h.722Zm0-4.486h-.722V73.937h.722Zm0-4.49h-.722V69.446h.722Zm0-4.486h-.722V64.96h.722Zm0-4.49h-.722V60.47h.722Z" transform="translate(-426.39 -58.31)" fill="gray"/><rect width="0.722" height="0.722" transform="translate(0)" fill="gray"/></g><g transform="translate(181.631 2.967)"><rect width="0.722" height="0.722" transform="translate(0 25.116)" fill="gray"/><path d="M447.612,72.116h-.722V70.677h.722Zm0-2.875h-.722V67.8h.722Zm0-2.878h-.722V64.924h.722Zm0-2.878h-.722V62.046h.722Zm0-2.875h-.722V59.171h.722Zm0-2.878h-.722V56.293h.722Zm0-2.878h-.722V53.415h.722Zm0-2.875h-.722V50.54h.722Z" transform="translate(-446.89 -48.409)" fill="gray"/><rect width="0.722" height="0.722" transform="translate(0 0)" fill="gray"/></g><g transform="translate(184.372 2.356)"><rect width="0.722" height="0.722" transform="translate(0 26.339)" fill="gray"/><path d="M457.862,55.418h-.722V54.337h.722Zm0-2.162h-.722V52.175h.722Zm0-2.162h-.722V50.014h.722Zm0-2.162h-.722V47.852h.722Zm0-2.162h-.722V45.69h.722Zm0-2.162h-.722V43.529h.722Zm0-2.162h-.722V41.367h.722Zm0-2.162h-.722V39.205h.722Zm0-2.162h-.722V37.043h.722Zm0-2.162h-.722V34.882h.722Zm0-2.162h-.722V32.72h.722Z" transform="translate(-457.14 -30.538)" fill="gray"/><rect width="0.722" height="0.722" transform="translate(0)" fill="gray"/></g><g transform="translate(203.686 14.573)"><rect width="0.722" height="0.722" transform="translate(0 1.904)" fill="gray"/><rect width="0.722" height="0.722" fill="gray"/></g><g transform="translate(206.558 13.261)"><rect width="0.722" height="0.722" transform="translate(0 4.529)" fill="gray"/><rect width="0.722" height="1.27" transform="translate(0 1.992)" fill="gray"/><rect width="0.722" height="0.722" fill="gray"/></g><rect width="0.722" height="0.877" transform="translate(209.298 15.448)" fill="gray"/><g transform="translate(0 14.573)"><rect width="0.722" height="0.722" fill="gray"/><rect width="0.722" height="0.722" transform="translate(0 1.904)" fill="gray"/></g><rect width="0.722" height="0.877" transform="translate(3.061 15.448)" fill="gray"/><g transform="translate(187.112)"><rect width="0.722" height="0.722" transform="translate(0 31.051)" fill="gray"/><path d="M468.112,35.5h-.722v-.886h.722Zm0-1.774h-.722v-.886h.722Zm0-1.774h-.722v-.886h.722Zm0-1.774h-.722v-.886h.722Zm0-1.773h-.722v-.886h.722Zm0-1.774h-.722v-.886h.722Zm0-1.774h-.722v-.886h.722Zm0-1.774h-.722v-.886h.722Zm0-1.774h-.722v-.886h.722Zm0-1.773h-.722v-.886h.722Zm0-1.774h-.722V16.87h.722Zm0-1.774h-.722V15.1h.722Zm0-1.774h-.722v-.886h.722Zm0-1.773h-.722v-.886h.722Zm0-1.774h-.722V9.774h.722Zm0-1.774h-.722V8h.722Z" transform="translate(-467.39 -5.861)" fill="gray"/><rect width="0.722" height="0.722" transform="translate(0)" fill="gray"/></g><g transform="translate(189.853 2.967)"><rect width="0.722" height="0.722" transform="translate(0 25.116)" fill="gray"/><path d="M478.362,72.116h-.722V70.677h.722Zm0-2.875h-.722V67.8h.722Zm0-2.878h-.722V64.924h.722Zm0-2.878h-.722V62.046h.722Zm0-2.875h-.722V59.171h.722Zm0-2.878h-.722V56.293h.722Zm0-2.878h-.722V53.415h.722Zm0-2.875h-.722V50.54h.722Z" transform="translate(-477.64 -48.409)" fill="gray"/><rect width="0.722" height="0.722" transform="translate(0 0)" fill="gray"/></g><g transform="translate(192.593 8.007)"><rect width="0.722" height="0.722" transform="translate(0 15.037)" fill="gray"/><path d="M488.612,80.363h-.722V78.772h.722Zm0-3.179h-.722V75.593h.722Zm0-3.182h-.722V72.412h.722Zm0-3.182h-.722V69.23h.722Z" transform="translate(-487.89 -66.917)" fill="gray"/><rect width="0.722" height="0.722" transform="translate(0)" fill="gray"/></g><g transform="translate(195.334 12.384)"><rect width="0.722" height="0.722" transform="translate(0 6.283)" fill="gray"/><rect width="0.722" height="1.853" transform="translate(0 2.577)" fill="gray"/><rect width="0.722" height="0.722" fill="gray"/></g><g transform="translate(198.074 8.007)"><rect width="0.722" height="0.722" transform="translate(0 15.037)" fill="gray"/><path d="M509.112,80.363h-.722V78.772h.722Zm0-3.179h-.722V75.593h.722Zm0-3.182h-.722V72.412h.722Zm0-3.182h-.722V69.23h.722Z" transform="translate(-508.39 -66.917)" fill="gray"/><rect width="0.722" height="0.722" transform="translate(0)" fill="gray"/></g><g transform="translate(200.815 12.384)"><rect width="0.722" height="0.722" transform="translate(0 6.283)" fill="gray"/><rect width="0.722" height="1.853" transform="translate(0 2.577)" fill="gray"/><rect width="0.722" height="0.722" fill="gray"/></g></svg>