<svg xmlns="http://www.w3.org/2000/svg" width="178.757" height="20.138" viewBox="0 0 178.757 20.138"><g transform="translate(6.219 5.254)"><rect width="0.722" height="0.722" transform="translate(0)" fill="#fff"/><path d="M23.982,85.782H23.26V84.143h.722Zm0-3.275H23.26V80.87h.722Z" transform="translate(-23.26 -78.509)" fill="#fff"/><rect width="0.722" height="0.722" transform="translate(0 8.909)" fill="#fff"/></g><g transform="translate(8.959 8.318)"><rect width="0.722" height="0.722" transform="translate(0 2.781)" fill="#fff"/><rect width="0.722" height="0.722" fill="#fff"/></g><g transform="translate(11.7 8.756)"><rect width="0.722" height="0.722" transform="translate(0 1.904)" fill="#fff"/><rect width="0.722" height="0.722" fill="#fff"/></g><g transform="translate(43.838 8.756)"><rect width="0.722" height="0.722" transform="translate(0 1.904)" fill="#fff"/><rect width="0.722" height="0.722" fill="#fff"/></g><g transform="translate(14.44 9.195)"><rect width="0.722" height="0.722" transform="translate(0 1.027)" fill="#fff"/><rect width="0.722" height="0.722" fill="#fff"/></g><g transform="translate(17.181 5.08)"><rect width="0.722" height="0.722" transform="translate(0 9.256)" fill="#fff"/><path d="M64.982,85.6H64.26V83.894h.722Zm0-3.414H64.26V80.48h.722Z" transform="translate(-64.26 -78.05)" fill="#fff"/><rect width="0.722" height="0.722" fill="#fff"/></g><g transform="translate(19.922 1.382)"><rect width="0.722" height="0.722" transform="translate(0 16.653)" fill="#fff"/><path d="M75.232,73.524H74.51V72.337h.722Zm0-2.374H74.51V69.963h.722Zm0-2.372H74.51V67.59h.722Zm0-2.374H74.51V65.216h.722Zm0-2.372H74.51V62.844h.722Zm0-2.374H74.51V60.47h.722Z" transform="translate(-74.51 -58.31)" fill="#fff"/><rect width="0.722" height="0.722" fill="#fff"/></g><g transform="translate(22.662 2.19)"><rect width="0.722" height="0.722" transform="translate(0 15.037)" fill="#fff"/><path d="M85.482,27.748H84.76v-.422h.722Zm0-.844H84.76v-.422h.722Zm0-.844H84.76v-.422h.722Zm0-.844H84.76v-.422h.722Zm0-.844H84.76v-.422h.722Zm0-.844H84.76V23.1h.722Zm0-.844H84.76V22.26h.722Zm0-.844H84.76v-.422h.722Zm0-.844H84.76v-.422h.722Zm0-.844H84.76v-.422h.722Zm0-.844H84.76v-.422h.722Zm0-.844H84.76v-.422h.722Zm0-.844H84.76v-.422h.722Zm0-.844H84.76V16.35h.722Z" transform="translate(-84.76 -14.168)" fill="#fff"/><rect width="0.722" height="0.722" fill="#fff"/></g><g transform="translate(25.403 3.133)"><rect width="0.722" height="0.722" transform="translate(0 13.15)" fill="#fff"/><path d="M95.732,76.481H95.01V75.408h.722Zm0-2.148H95.01V73.261h.722Zm0-2.148H95.01V71.113h.722Zm0-2.148H95.01V68.966h.722Zm0-2.146H95.01V66.82h.722Z" transform="translate(-95.01 -64.713)" fill="#fff"/><rect width="0.722" height="0.722" fill="#fff"/></g><g transform="translate(28.143 5.692)"><rect width="0.722" height="0.722" transform="translate(0 8.032)" fill="#fff"/><path d="M105.982,86.237h-.722V84.775h.722Zm0-2.925h-.722V81.85h.722Z" transform="translate(-105.26 -79.666)" fill="#fff"/><rect width="0.722" height="0.722" fill="#fff"/></g><g transform="translate(37.365 3.133)"><rect width="0.722" height="0.722" transform="translate(0 13.15)" fill="#fff"/><path d="M116.232,76.481h-.722V75.408h.722Zm0-2.148h-.722V73.261h.722Zm0-2.148h-.722V71.113h.722Zm0-2.148h-.722V68.966h.722Zm0-2.146h-.722V66.82h.722Z" transform="translate(-115.51 -64.713)" fill="#fff"/><rect width="0.722" height="0.722" fill="#fff"/></g><g transform="translate(40.681 7.444)"><rect width="0.722" height="0.722" transform="translate(0 4.529)" fill="#fff"/><rect width="0.722" height="1.27" transform="translate(0 1.992)" fill="#fff"/><rect width="0.722" height="0.722" fill="#fff"/></g><g transform="translate(47.313 7.444)"><rect width="0.722" height="0.722" transform="translate(0 4.529)" fill="#fff"/><rect width="0.722" height="1.27" transform="translate(0 1.992)" fill="#fff"/><rect width="0.722" height="0.722" fill="#fff"/></g><g transform="translate(50.628 2.19)"><rect width="0.722" height="0.722" transform="translate(0 15.037)" fill="#fff"/><path d="M157.242,80.363h-.722V78.772h.722Zm0-3.179h-.722V75.593h.722Zm0-3.182h-.722V72.412h.722Zm0-3.182h-.722V69.23h.722Z" transform="translate(-156.517 -66.917)" fill="#fff"/><rect width="0.722" height="0.722" fill="#fff"/></g><g transform="translate(73.997 8.756)"><rect width="0.722" height="0.722" transform="translate(0 1.904)" fill="#fff"/><rect width="0.722" height="0.722" fill="#fff"/></g><g transform="translate(77.471 7.444)"><rect width="0.722" height="0.722" transform="translate(0 4.529)" fill="#fff"/><rect width="0.722" height="1.27" transform="translate(0 1.992)" fill="#fff"/><rect width="0.722" height="0.722" fill="#fff"/></g><rect width="0.722" height="0.877" transform="translate(80.787 9.631)" fill="#fff"/><g transform="translate(53.944 1.216)"><rect width="0.722" height="0.722" transform="translate(0 16.984)" fill="#fff"/><path d="M167.492,57.5h-.722v-.786h.722Zm0-1.574h-.722v-.786h.722Zm0-1.572h-.722V53.57h.722Zm0-1.574h-.722V52h.722Zm0-1.574h-.722v-.786h.722Zm0-1.572h-.722V48.85h.722Zm0-1.574h-.722v-.786h.722Zm0-1.572h-.722V45.7h.722Zm0-1.574h-.722V44.13h.722Z" transform="translate(-166.767 -41.962)" fill="#fff"/><rect width="0.722" height="0.722" fill="#fff"/></g><g transform="translate(57.26 4.38)"><rect width="0.722" height="0.722" transform="translate(0 10.657)" fill="#fff"/><path d="M177.742,83.879h-.722v-1.42h.722Zm0-2.839h-.722v-1.42h.722Zm0-2.839h-.722V76.78h.722Z" transform="translate(-177.017 -74.638)" fill="#fff"/><rect width="0.722" height="0.722" fill="#fff"/></g><g transform="translate(60.575 7.444)"><rect width="0.722" height="0.722" transform="translate(0 4.529)" fill="#fff"/><rect width="0.722" height="1.27" transform="translate(0 1.992)" fill="#fff"/><rect width="0.722" height="0.722" fill="#fff"/></g><g transform="translate(63.891 8.756)"><rect width="0.722" height="0.722" transform="translate(0 1.904)" fill="#fff"/><rect width="0.722" height="0.722" fill="#fff"/></g><g transform="translate(84.241 7.444)"><rect width="0.722" height="0.722" transform="translate(0 4.529)" fill="#fff"/><rect width="0.722" height="1.27" transform="translate(0 1.992)" fill="#fff"/><rect width="0.722" height="0.722" fill="#fff"/></g><g transform="translate(87.557 2.19)"><rect width="0.722" height="0.722" transform="translate(0 15.037)" fill="#fff"/><path d="M271.4,80.363h-.722V78.772h.722Zm0-3.179h-.722V75.593h.722Zm0-3.182h-.722V72.412h.722Zm0-3.182h-.722V69.23h.722Z" transform="translate(-270.677 -66.917)" fill="#fff"/><rect width="0.722" height="0.722" fill="#fff"/></g><g transform="translate(90.873 7.005)"><rect width="0.722" height="0.722" transform="translate(0 5.406)" fill="#fff"/><rect width="0.722" height="1.561" transform="translate(0 2.283)" fill="#fff"/><rect width="0.722" height="0.722" fill="#fff"/></g><g transform="translate(94.189 4.38)"><rect width="0.722" height="0.722" transform="translate(0 10.657)" fill="#fff"/><path d="M291.9,83.879h-.722v-1.42h.722Zm0-2.839h-.722v-1.42h.722Zm0-2.839h-.722V76.78h.722Z" transform="translate(-291.177 -74.638)" fill="#fff"/><rect width="0.722" height="0.722" fill="#fff"/></g><g transform="translate(97.504 7.444)"><rect width="0.722" height="0.722" transform="translate(0 4.529)" fill="#fff"/><rect width="0.722" height="1.27" transform="translate(0 1.992)" fill="#fff"/><rect width="0.722" height="0.722" fill="#fff"/></g><g transform="translate(100.82 8.756)"><rect width="0.722" height="0.722" transform="translate(0 1.904)" fill="#fff"/><rect width="0.722" height="0.722" fill="#fff"/></g><g transform="translate(67.207 2.19)"><rect width="0.722" height="0.722" transform="translate(0 15.037)" fill="#fff"/><path d="M208.482,80.363h-.722V78.772h.722Zm0-3.179h-.722V75.593h.722Zm0-3.182h-.722V72.412h.722Zm0-3.182h-.722V69.23h.722Z" transform="translate(-207.76 -66.917)" fill="#fff"/><rect width="0.722" height="0.722" fill="#fff"/></g><g transform="translate(70.522 6.567)"><rect width="0.722" height="0.722" transform="translate(0 6.283)" fill="#fff"/><rect width="0.722" height="1.853" transform="translate(0 2.577)" fill="#fff"/><rect width="0.722" height="0.722" fill="#fff"/></g><g transform="translate(104.773 5.254)"><rect width="0.722" height="0.722" transform="translate(0)" fill="#fff"/><path d="M324.612,85.782h-.722V84.143h.722Zm0-3.275h-.722V80.87h.722Z" transform="translate(-323.89 -78.509)" fill="#fff"/><rect width="0.722" height="0.722" transform="translate(0 8.909)" fill="#fff"/></g><g transform="translate(108.088 8.318)"><rect width="0.722" height="0.722" transform="translate(0 2.781)" fill="#fff"/><rect width="0.722" height="0.722" fill="#fff"/></g><g transform="translate(111.404 8.756)"><rect width="0.722" height="0.722" transform="translate(0 1.904)" fill="#fff"/><rect width="0.722" height="0.722" fill="#fff"/></g><g transform="translate(141.087 5.692)"><rect width="0.722" height="0.722" transform="translate(0 8.032)" fill="#fff"/><path d="M436.872,86.237h-.722V84.775h.722Zm0-2.925h-.722V81.85h.722Z" transform="translate(-436.15 -79.666)" fill="#fff"/><rect width="0.722" height="0.722" fill="#fff"/></g><g transform="translate(114.72 9.195)"><rect width="0.722" height="0.722" transform="translate(0 1.027)" fill="#fff"/><rect width="0.722" height="0.722" fill="#fff"/></g><g transform="translate(118.036 5.08)"><rect width="0.722" height="0.722" transform="translate(0 9.256)" fill="#fff"/><path d="M365.612,85.6h-.722V83.894h.722Zm0-3.414h-.722V80.48h.722Z" transform="translate(-364.89 -78.05)" fill="#fff"/><rect width="0.722" height="0.722" transform="translate(0)" fill="#fff"/></g><g transform="translate(121.351 1.382)"><rect width="0.722" height="0.722" transform="translate(0 16.653)" fill="#fff"/><path d="M375.862,73.524h-.722V72.337h.722Zm0-2.374h-.722V69.963h.722Zm0-2.372h-.722V67.59h.722Zm0-2.374h-.722V65.216h.722Zm0-2.372h-.722V62.844h.722Zm0-2.374h-.722V60.47h.722Z" transform="translate(-375.14 -58.31)" fill="#fff"/><rect width="0.722" height="0.722" transform="translate(0)" fill="#fff"/></g><g transform="translate(124.667 4.38)"><rect width="0.722" height="0.722" transform="translate(0 10.657)" fill="#fff"/><path d="M386.112,83.879h-.722v-1.42h.722Zm0-2.839h-.722v-1.42h.722Zm0-2.839h-.722V76.78h.722Z" transform="translate(-385.39 -74.638)" fill="#fff"/><rect width="0.722" height="0.722" transform="translate(0)" fill="#fff"/></g><g transform="translate(127.983 3.133)"><rect width="0.722" height="0.722" transform="translate(0 13.15)" fill="#fff"/><path d="M396.362,76.481h-.722V75.408h.722Zm0-2.148h-.722V73.261h.722Zm0-2.148h-.722V71.113h.722Zm0-2.148h-.722V68.966h.722Zm0-2.146h-.722V66.82h.722Z" transform="translate(-395.64 -64.713)" fill="#fff"/><rect width="0.722" height="0.722" transform="translate(0)" fill="#fff"/></g><g transform="translate(131.298 1.216)"><rect width="0.722" height="0.722" transform="translate(0 16.984)" fill="#fff"/><path d="M406.612,57.5h-.722v-.786h.722Zm0-1.574h-.722v-.786h.722Zm0-1.572h-.722V53.57h.722Zm0-1.574h-.722V52h.722Zm0-1.574h-.722v-.786h.722Zm0-1.572h-.722V48.85h.722Zm0-1.574h-.722v-.786h.722Zm0-1.572h-.722V45.7h.722Zm0-1.574h-.722V44.13h.722Z" transform="translate(-405.89 -41.962)" fill="#fff"/><rect width="0.722" height="0.722" transform="translate(0)" fill="#fff"/></g><g transform="translate(134.614 2.967)"><rect width="0.722" height="0.722" transform="translate(0 13.482)" fill="#fff"/><path d="M416.862,60.482h-.722v-.663h.722Zm0-1.325h-.722v-.663h.722Zm0-1.326h-.722v-.663h.722Zm0-1.326h-.722v-.663h.722Zm0-1.325h-.722v-.663h.722Zm0-1.326h-.722v-.663h.722Zm0-1.326h-.722v-.663h.722Zm0-1.325h-.722V50.54h.722Z" transform="translate(-416.14 -48.409)" fill="#fff"/><rect width="0.722" height="0.722" transform="translate(0 0)" fill="#fff"/></g><g transform="translate(137.93 1.382)"><rect width="0.722" height="0.722" transform="translate(0 16.653)" fill="#fff"/><path d="M427.112,73.524h-.722V72.337h.722Zm0-2.374h-.722V69.963h.722Zm0-2.372h-.722V67.59h.722Zm0-2.374h-.722V65.216h.722Zm0-2.372h-.722V62.844h.722Zm0-2.374h-.722V60.47h.722Z" transform="translate(-426.39 -58.31)" fill="#fff"/><rect width="0.722" height="0.722" transform="translate(0)" fill="#fff"/></g><g transform="translate(150.368 2.967)"><rect width="0.722" height="0.722" transform="translate(0 13.482)" fill="#fff"/><path d="M447.612,60.482h-.722v-.663h.722Zm0-1.325h-.722v-.663h.722Zm0-1.326h-.722v-.663h.722Zm0-1.326h-.722v-.663h.722Zm0-1.325h-.722v-.663h.722Zm0-1.326h-.722v-.663h.722Zm0-1.326h-.722v-.663h.722Zm0-1.325h-.722V50.54h.722Z" transform="translate(-446.89 -48.409)" fill="#fff"/><rect width="0.722" height="0.722" transform="translate(0 0)" fill="#fff"/></g><g transform="translate(153.108 2.356)"><rect width="0.722" height="0.722" transform="translate(0 14.705)" fill="#fff"/><path d="M457.862,43.784h-.722v-.527h.722Zm0-1.054h-.722V42.2h.722Zm0-1.054h-.722V41.15h.722Zm0-1.054h-.722V40.1h.722Zm0-1.054h-.722v-.527h.722Zm0-1.054h-.722v-.527h.722Zm0-1.054h-.722v-.527h.722Zm0-1.054h-.722v-.527h.722Zm0-1.054h-.722v-.527h.722Zm0-1.054h-.722v-.527h.722Zm0-1.054h-.722V32.72h.722Z" transform="translate(-457.14 -30.538)" fill="#fff"/><rect width="0.722" height="0.722" transform="translate(0)" fill="#fff"/></g><g transform="translate(172.423 8.756)"><rect width="0.722" height="0.722" transform="translate(0 1.904)" fill="#fff"/><rect width="0.722" height="0.722" fill="#fff"/></g><g transform="translate(175.295 7.444)"><rect width="0.722" height="0.722" transform="translate(0 4.529)" fill="#fff"/><rect width="0.722" height="1.27" transform="translate(0 1.992)" fill="#fff"/><rect width="0.722" height="0.722" fill="#fff"/></g><rect width="0.722" height="0.877" transform="translate(178.035 9.631)" fill="#fff"/><g transform="translate(0 8.756)"><rect width="0.722" height="0.722" fill="#fff"/><rect width="0.722" height="0.722" transform="translate(0 1.904)" fill="#fff"/></g><rect width="0.722" height="0.877" transform="translate(3.061 9.631)" fill="#fff"/><g transform="translate(155.849)"><rect width="0.722" height="0.722" transform="translate(0 19.416)" fill="#fff"/><path d="M468.112,23.863h-.722v-.511h.722Zm0-1.024h-.722v-.511h.722Zm0-1.024h-.722V21.3h.722Zm0-1.024h-.722v-.511h.722Zm0-1.023h-.722v-.511h.722Zm0-1.024h-.722v-.511h.722Zm0-1.024h-.722v-.511h.722Zm0-1.024h-.722v-.511h.722Zm0-1.024h-.722v-.511h.722Zm0-1.023h-.722v-.511h.722Zm0-1.024h-.722v-.511h.722Zm0-1.024h-.722v-.511h.722Zm0-1.024h-.722V11.07h.722Zm0-1.023h-.722v-.511h.722Zm0-1.024h-.722V9.024h.722Zm0-1.024h-.722V8h.722Z" transform="translate(-467.39 -5.861)" fill="#fff"/><rect width="0.722" height="0.722" transform="translate(0)" fill="#fff"/></g><g transform="translate(158.589 2.967)"><rect width="0.722" height="0.722" transform="translate(0 13.482)" fill="#fff"/><path d="M478.362,60.482h-.722v-.663h.722Zm0-1.325h-.722v-.663h.722Zm0-1.326h-.722v-.663h.722Zm0-1.326h-.722v-.663h.722Zm0-1.325h-.722v-.663h.722Zm0-1.326h-.722v-.663h.722Zm0-1.326h-.722v-.663h.722Zm0-1.325h-.722V50.54h.722Z" transform="translate(-477.64 -48.409)" fill="#fff"/><rect width="0.722" height="0.722" transform="translate(0 0)" fill="#fff"/></g><g transform="translate(161.33 2.19)"><rect width="0.722" height="0.722" transform="translate(0 15.037)" fill="#fff"/><path d="M488.612,80.363h-.722V78.772h.722Zm0-3.179h-.722V75.593h.722Zm0-3.182h-.722V72.412h.722Zm0-3.182h-.722V69.23h.722Z" transform="translate(-487.89 -66.917)" fill="#fff"/><rect width="0.722" height="0.722" transform="translate(0)" fill="#fff"/></g><g transform="translate(164.071 6.567)"><rect width="0.722" height="0.722" transform="translate(0 6.283)" fill="#fff"/><rect width="0.722" height="1.853" transform="translate(0 2.577)" fill="#fff"/><rect width="0.722" height="0.722" fill="#fff"/></g><g transform="translate(166.811 2.19)"><rect width="0.722" height="0.722" transform="translate(0 15.037)" fill="#fff"/><path d="M509.112,80.363h-.722V78.772h.722Zm0-3.179h-.722V75.593h.722Zm0-3.182h-.722V72.412h.722Zm0-3.182h-.722V69.23h.722Z" transform="translate(-508.39 -66.917)" fill="#fff"/><rect width="0.722" height="0.722" transform="translate(0)" fill="#fff"/></g><g transform="translate(169.552 6.567)"><rect width="0.722" height="0.722" transform="translate(0 6.283)" fill="#fff"/><rect width="0.722" height="1.853" transform="translate(0 2.577)" fill="#fff"/><rect width="0.722" height="0.722" fill="#fff"/></g></svg>