<svg xmlns="http://www.w3.org/2000/svg" width="44.391" height="44.391" viewBox="0 0 44.391 44.391">
  <g id="Group_2306" data-name="Group 2306" transform="translate(-2181.952 288.348)">
    <g id="Group_582" data-name="Group 582" transform="translate(2194.139 -276.16)">
      <g id="Path_731" data-name="Path 731" transform="translate(-12.187 -12.187)" fill="none">
        <path d="M22.2,0A22.2,22.2,0,1,1,0,22.2,22.2,22.2,0,0,1,22.2,0Z" stroke="none"/>
        <path d="M 22.1954231262207 3 C 17.06814384460449 3 12.24774169921875 4.996669769287109 8.622211456298828 8.622200012207031 C 4.996673583984375 12.24773025512695 3.000003814697266 17.0681095123291 3.000003814697266 22.19538879394531 C 3.000003814697266 27.32265853881836 4.996673583984375 32.14305114746094 8.622211456298828 35.76857757568359 C 12.24775314331055 39.39410781860352 17.06814384460449 41.39077758789063 22.1954231262207 41.39077758789063 C 27.32270240783691 41.39077758789063 32.14309310913086 39.39410781860352 35.76863098144531 35.76857757568359 C 39.39417266845703 32.14305114746094 41.39084243774414 27.32265853881836 41.39084243774414 22.19538879394531 C 41.39084243774414 17.0681095123291 39.39417266845703 12.24773025512695 35.76863098144531 8.622200012207031 C 32.14310455322266 4.996669769287109 27.32270240783691 3 22.1954231262207 3 M 22.1954231262207 0 C 34.45361328125 0 44.39084243774414 9.937210083007813 44.39084243774414 22.19538879394531 C 44.39084243774414 34.45355987548828 34.45361328125 44.39077758789063 22.1954231262207 44.39077758789063 C 9.937232971191406 44.39077758789063 3.814697265625e-06 34.45355987548828 3.814697265625e-06 22.19538879394531 C 3.814697265625e-06 9.937210083007813 9.937232971191406 0 22.1954231262207 0 Z" stroke="none" fill="#fff"/>
      </g>
      <path id="Path_687" data-name="Path 687" d="M19.689,14.33a13.245,13.245,0,0,1-4.086-.648,1.131,1.131,0,0,0-1.169.278l-1.817,2.28A17.575,17.575,0,0,1,4.642,8.334L6.9,6.413a1.181,1.181,0,0,0,.278-1.181,12.909,12.909,0,0,1-.648-4.086A1.156,1.156,0,0,0,5.382,0h-4C.752,0,0,.278,0,1.146A19.854,19.854,0,0,0,19.689,20.835a1.215,1.215,0,0,0,1.146-1.366V15.476A1.156,1.156,0,0,0,19.689,14.33Z" transform="translate(-1.481 0.076)" fill="#fff"/>
    </g>
  </g>
</svg>
